<svg xmlns="http://www.w3.org/2000/svg" viewBox="0 0 229.26 38.49"><defs><style>.cls-1,.cls-2,.cls-4{fill:#1d1d1b;}.cls-2{fill-rule:evenodd;}.cls-3{fill:none;stroke-miterlimit:3.86;stroke-width:0.85px;}.cls-3,.cls-4{stroke:#1d1d1b;}.cls-4{stroke-miterlimit:3.86;stroke-width:0.1px;}</style></defs><title>logo-lhm</title><g id="Ebene_2" data-name="Ebene 2"><g id="Ebene_2-2" data-name="Ebene 2"><polygon class="cls-1" points="62.99 36.16 62.99 21.91 63.03 21.91 68.95 36.16 70.35 36.16 76.27 21.85 76.31 21.85 76.31 36.16 77.71 36.16 77.71 20.67 75.58 20.67 69.64 34.16 63.83 20.67 61.59 20.67 61.59 36.16 62.99 36.16 62.99 36.16"/><path class="cls-2" d="M88.68,23.91V22H87.09v1.89Zm-3.74,0V22H83.36v1.89Zm4,8.71c0,1.93-1,3.71-3.09,3.71a2.66,2.66,0,0,1-2.83-3V26.42H81.77v6.73c0,1.25.28,4.36,3.8,4.36a3.69,3.69,0,0,0,3.36-1.95l0,0L89,37.19h1.33c0-.73-.11-1.59-.11-2.43V26.42H89v6.2Z" transform="translate(-0.29 -1.03)"/><path class="cls-1" d="M95,31c0-1.93,1-3.71,3.09-3.71a2.66,2.66,0,0,1,2.83,3v7h1.29V30.45c0-1.24-.28-4.35-3.8-4.35A3.71,3.71,0,0,0,95,28.05L95,28l-.06-1.58H93.59c0,.73.1,1.58.1,2.42v8.35H95V31Z" transform="translate(-0.29 -1.03)"/><path class="cls-1" d="M113.81,29.72a3.8,3.8,0,0,0-4.12-3.62c-3.19,0-4.8,2.78-4.8,5.7s1.5,5.71,4.72,5.71a3.82,3.82,0,0,0,4.2-3.69h-1.39a2.73,2.73,0,0,1-2.94,2.51c-2,0-3.2-2.08-3.2-4.55s1.23-4.5,3.2-4.5c1.78,0,2.83.79,2.94,2.44Z" transform="translate(-0.29 -1.03)"/><path class="cls-1" d="M117.63,21.7h-1.29V37.19h1.29V31c0-1.93,1-3.71,3.09-3.71a2.66,2.66,0,0,1,2.83,3v7h1.29V30.45c0-1.24-.28-4.35-3.8-4.35a3.71,3.71,0,0,0-3.37,1.95h0V21.7Z" transform="translate(-0.29 -1.03)"/><path class="cls-2" d="M137.34,32.1c0-3.37-1.31-6-4.91-6-3.2,0-4.81,2.78-4.81,5.7s1.51,5.71,4.72,5.71a4.51,4.51,0,0,0,4.87-3.76h-1.35a3.2,3.2,0,0,1-3.11,2.58c-2.64,0-3.69-1.93-3.73-4.23Zm-8.28-1.18c.17-1.89,1.29-3.64,3.39-3.64s3.35,1.56,3.5,3.64Z" transform="translate(-0.29 -1.03)"/><path class="cls-1" d="M141.48,31c0-1.93,1-3.71,3.09-3.71a2.66,2.66,0,0,1,2.83,3v7h1.29V30.45c0-1.24-.28-4.35-3.8-4.35a3.71,3.71,0,0,0-3.37,1.95l0-.05-.06-1.58h-1.34c0,.73.11,1.58.11,2.42v8.35h1.29V31Z" transform="translate(-0.29 -1.03)"/><polygon class="cls-1" points="70.78 15.5 70.78 14.21 62.99 14.21 62.99 0.01 61.6 0.01 61.6 15.5 70.78 15.5 70.78 15.5"/><path class="cls-2" d="M73.84,13.53c0-2.71,3.82-2.36,5.64-2.43.13,2.25-.41,4.57-3.22,4.57a2.15,2.15,0,0,1-2.42-2.14Zm5.64-3.61c-1.56.09-3.43-.13-4.87.49a3.34,3.34,0,0,0-2.17,3.12A3.29,3.29,0,0,0,76,16.85a4.06,4.06,0,0,0,3.37-1.76l.06-.15h0l0,1.59h1.33c0-.73-.13-1.59-.11-2.42V9c0-2.47-1.44-3.56-3.82-3.56-2.06,0-3.71.83-4,3h1.37c.17-1.45,1.29-1.86,2.64-1.86,1.52,0,2.42.56,2.55,2.31v1Z" transform="translate(-0.29 -1.03)"/><path class="cls-1" d="M85.4,10.33c0-1.93,1-3.71,3.09-3.71a2.66,2.66,0,0,1,2.83,3v7h1.29V9.79c0-1.24-.28-4.35-3.8-4.35a3.72,3.72,0,0,0-3.37,1.95l0,0-.06-1.59H84c0,.73.1,1.59.1,2.42v8.35H85.4v-6.2Z" transform="translate(-0.29 -1.03)"/><path class="cls-2" d="M103.42,10.89c0,2.44-.86,4.78-3.67,4.78-2.47,0-3-2.72-3-4.72s.8-4.33,3.24-4.33,3.48,2.08,3.48,4.27Zm.11,5.64h1.33c0-.73-.11-1.59-.11-2.42V1h-1.29V7.35l0,0a4.29,4.29,0,0,0-3.69-1.95c-3.2,0-4.42,2.87-4.42,5.66s1.22,5.75,4.42,5.75a4.39,4.39,0,0,0,3.69-2l0,.08.07,1.59Z" transform="translate(-0.29 -1.03)"/><path class="cls-2" d="M117,11.44c0-3.36-1.31-6-4.91-6-3.2,0-4.81,2.79-4.81,5.7s1.5,5.71,4.72,5.71a4.52,4.52,0,0,0,4.87-3.75h-1.35a3.2,3.2,0,0,1-3.11,2.57c-2.64,0-3.69-1.93-3.74-4.23Zm-8.28-1.18c.17-1.88,1.28-3.64,3.39-3.64s3.34,1.56,3.49,3.64Z" transform="translate(-0.29 -1.03)"/><path class="cls-1" d="M119.52,8.44c0,2,1.72,2.49,3.41,2.9s3.42.64,3.42,2.19-1.44,2.14-2.82,2.14-2.87-.47-3-2.08h-1.39c0,2.38,2.19,3.26,4,3.26,2.28,0,4.53-1.09,4.53-3.52a2.63,2.63,0,0,0-1.82-2.51c-2.92-1-5-.88-5-2.46,0-1.27,1.22-1.74,2.42-1.74s2.53.45,2.66,1.8h1.4c-.17-2.27-1.89-3-3.93-3-1.89,0-4,.77-4,3Z" transform="translate(-0.29 -1.03)"/><path class="cls-1" d="M131.9,1h-1.29V16.53h1.29v-6.2c0-1.93,1-3.71,3.09-3.71a2.66,2.66,0,0,1,2.83,3v7h1.29V9.79c0-1.24-.28-4.35-3.8-4.35a3.71,3.71,0,0,0-3.37,1.95h0V1Z" transform="translate(-0.29 -1.03)"/><path class="cls-2" d="M143,13.53c0-2.71,3.82-2.36,5.64-2.43.13,2.25-.41,4.57-3.22,4.57A2.15,2.15,0,0,1,143,13.53Zm5.64-3.61c-1.56.09-3.43-.13-4.87.49a3.34,3.34,0,0,0-2.17,3.12,3.29,3.29,0,0,0,3.59,3.32,4.06,4.06,0,0,0,3.37-1.76l.06-.15h0l0,1.59H150c-.05-.73-.13-1.59-.11-2.42V9c0-2.47-1.44-3.56-3.82-3.56-2.06,0-3.71.83-4,3h1.37c.17-1.45,1.29-1.86,2.64-1.86,1.52,0,2.42.56,2.55,2.31v1Z" transform="translate(-0.29 -1.03)"/><path class="cls-1" d="M160.47,12c0,1.93-1,3.71-3.09,3.71a2.66,2.66,0,0,1-2.83-3v-7h-1.29V12.5c0,1.24.28,4.35,3.8,4.35a3.7,3.7,0,0,0,3.37-2l0,0,.07,1.59h1.33c-.05-.73-.11-1.59-.11-2.42V5.76h-1.29V12Z" transform="translate(-0.29 -1.03)"/><path class="cls-2" d="M166.26,10.89c0-2.19,1-4.27,3.48-4.27S173,8.89,173,11s-.62,4.72-3.09,4.72c-2.81,0-3.67-2.34-3.67-4.78Zm0,4h0a4.42,4.42,0,0,0,3.76,2c3.13,0,4.35-3.05,4.35-5.75S173.19,5.44,170,5.44a4.31,4.31,0,0,0-3.69,1.95l0,0-.06-1.59h-1.33c0,.73.13,1.59.1,2.42V20.65h1.29V14.86Z" transform="translate(-0.29 -1.03)"/><path class="cls-1" d="M178,13.65c0,1.46-.15,3.2,2.57,3.2a5.25,5.25,0,0,0,1.31-.19V15.54a3.7,3.7,0,0,1-1.12.13,1.33,1.33,0,0,1-1.48-1.52V6.94h2.45V5.76h-2.45V2.91L178,3.46v2.3h-2.15V6.94H178v6.71Z" transform="translate(-0.29 -1.03)"/><path class="cls-1" d="M183.88,8.44c0,2,1.72,2.49,3.41,2.9s3.41.64,3.41,2.19-1.44,2.14-2.81,2.14-2.87-.47-3-2.08h-1.4c.05,2.38,2.19,3.26,4.06,3.26,2.27,0,4.53-1.09,4.53-3.52a2.62,2.62,0,0,0-1.83-2.51c-2.92-1-5-.88-5-2.46,0-1.27,1.23-1.74,2.43-1.74s2.53.45,2.66,1.8h1.39c-.17-2.27-1.88-3-3.92-3s-4,.77-4,3Z" transform="translate(-0.29 -1.03)"/><path class="cls-1" d="M195.89,13.65c0,1.46-.15,3.2,2.58,3.2a5.25,5.25,0,0,0,1.31-.19V15.54a3.74,3.74,0,0,1-1.12.13,1.33,1.33,0,0,1-1.48-1.52V6.94h2.45V5.76h-2.45V2.91l-1.29.55v2.3h-2.14V6.94h2.14v6.71Z" transform="translate(-0.29 -1.03)"/><path class="cls-2" d="M202.55,13.53c0-2.71,3.82-2.36,5.64-2.43.13,2.25-.4,4.57-3.21,4.57a2.15,2.15,0,0,1-2.43-2.14Zm5.64-3.61c-1.56.09-3.43-.13-4.87.49a3.34,3.34,0,0,0-2.16,3.12,3.28,3.28,0,0,0,3.58,3.32,4,4,0,0,0,3.37-1.76l.06-.15h.05l0,1.59h1.33c0-.73-.13-1.59-.11-2.42V9c0-2.47-1.44-3.56-3.82-3.56-2.06,0-3.71.83-4,3H203c.17-1.45,1.29-1.86,2.64-1.86,1.52,0,2.43.56,2.55,2.31v1Z" transform="translate(-0.29 -1.03)"/><path class="cls-2" d="M220.21,10.89c0,2.44-.86,4.78-3.67,4.78-2.47,0-3-2.72-3-4.72s.8-4.33,3.24-4.33,3.48,2.08,3.48,4.27Zm.1,5.64h1.33c0-.73-.1-1.59-.1-2.42V1h-1.29V7.35l0,0a4.3,4.3,0,0,0-3.69-1.95c-3.2,0-4.42,2.87-4.42,5.66s1.22,5.75,4.42,5.75a4.39,4.39,0,0,0,3.69-2l0,.08.06,1.59Z" transform="translate(-0.29 -1.03)"/><path class="cls-1" d="M225.67,13.65c0,1.46-.15,3.2,2.58,3.2a5.25,5.25,0,0,0,1.31-.19V15.54a3.74,3.74,0,0,1-1.12.13A1.33,1.33,0,0,1,227,14.15V6.94h2.45V5.76H227V2.91l-1.29.55v2.3h-2.14V6.94h2.14v6.71Z" transform="translate(-0.29 -1.03)"/><path class="cls-3" d="M.72,1.46H30.65V24.15a15,15,0,0,1-29.93,0V1.46Z" transform="translate(-0.29 -1.03)"/><path class="cls-1" d="M16.08,14.1a4,4,0,0,0,2.71-1,2,2,0,0,0,.64-1L19,12a1.45,1.45,0,0,1-.51.71,3.77,3.77,0,0,1-2.64.93,4.26,4.26,0,0,1-2.36-.69,1.62,1.62,0,0,1-.82-.95l-.44.17a2.05,2.05,0,0,0,1,1.2,4.47,4.47,0,0,0,2.37.76v5.15H12.74v.52h2.8V28.9h.54V19.77H19v-.52H16.08V14.1ZM14.63,5.84a13.19,13.19,0,0,1,3.56.43,4,4,0,0,1,2.09,1.92,4.66,4.66,0,0,1,.58,1.64c-1.09,0-3.62-.27-3.07.83a3,3,0,0,0,1.83,1.13,8.64,8.64,0,0,0,4.53-.53c.48-.18-.13-.77.21-1,0,0,.24-.12.6-.33-.09-.25-.18-.4-.27-.64l1.83-1,1.34,2.71-1.86,1-.64-1.3c.38-.29.38-.28,1-.71a1.07,1.07,0,0,0-.12-.27,4.31,4.31,0,0,0-1.15.73c-.12.28.07.42,0,.72s-.39.48-.75.6a.78.78,0,0,0,.06.29,1,1,0,0,0,.92-.73c.22.27.22.46.37.64L24.1,13V11.6a1.89,1.89,0,0,0-.38.09V29.47a3.56,3.56,0,0,1-2.22-.94,4.78,4.78,0,0,1-.39-2.74c0-.15.09-7.34-.09-8.2a3.76,3.76,0,0,0-.67-1.3,2.56,2.56,0,0,0-1-.77v13.7H12.43V15.74a2,2,0,0,0-1,.55,2,2,0,0,0-.7,1.33s0,6.5,0,8.2-.19,2-.34,2.19a2.57,2.57,0,0,1-2.42,1.31c0-6.12,0-15.19,0-16.44,0-.6.14-1.19-.4-1.37,0,.43,0,.74,0,1.25l-2.76-1.5c0-.15.09-.16.15-.31a6.33,6.33,0,0,1,.8.31,1.56,1.56,0,0,1,.08-.21A1.94,1.94,0,0,0,5,10.74c.06-.15.06-.14.12-.18s.46.16.86.25c0-.12,0-.21,0-.24s-.45-.17-.75-.32c-.11-.09-.62-.35-1.17-.75a.46.46,0,0,1,.12-.24c.15.09.88.55,1.18.71,0,0,.1-.19.07-.19C5.24,9.59,4.87,9.44,4.3,9a.84.84,0,0,0,.15-.28c.45.28.76.55,1.22.88a2.44,2.44,0,0,1,.57.46c.19.34-.14,1.25.83,1.52v-.29c-.64-.38-.37-1-.61-1.35s-.92-.59-.55-1.1c.41.31,1.55,1.25,1.55,1.28.06.18-.22.71.29,1a9.37,9.37,0,0,0,3.51.74,4.79,4.79,0,0,0,3.32-1.34,5.23,5.23,0,0,0,.52.66l.82-.27S16,10,16,9c0-1.49,0-1.84-.17-2.22a2.43,2.43,0,0,0-1.2-1Z" transform="translate(-0.29 -1.03)"/><path class="cls-4" d="M13.44,29.62h1.09v1.46c-.06.1-.37.16-1.06.65-.86.61-1.22.88-2.05,1.4,0-1.49,1.25-2.26,1.53-2.62s.3-.83.49-.89Z" transform="translate(-0.29 -1.03)"/><path class="cls-4" d="M17,29.62H18.1a6.8,6.8,0,0,0,.81,1.25c.62.7,1,.58,1.13,2.26a13,13,0,0,1-1.76-1.25c-.74-.55-1.07-.58-1.23-.8A4.93,4.93,0,0,1,17,29.62Z" transform="translate(-0.29 -1.03)"/><path class="cls-2" d="M13.7,8V8c.48.25.5.24,1,0A.61.61,0,0,0,14,7.62.39.39,0,0,0,13.7,8Zm-.21-1.46c-.06.39,0,.43.26.68.08-.43.09-.39-.26-.68Zm.39,0c-.07.39,0,.44.29.66,0-.33.1-.38-.29-.66Zm.4,0c-.06.39,0,.4.3.66,0-.33.05-.41-.3-.66Zm.41,0c-.07.39,0,.46.29.66,0-.32,0-.36-.29-.66Zm-1-.52a1.6,1.6,0,0,1,.91.19,2.13,2.13,0,0,1,1,1.11c.1.27,0,3.75,0,3.75l-.07,0a5.41,5.41,0,0,0-.61-1,13.33,13.33,0,0,1-1.56,0,6.14,6.14,0,0,1-.1-1l-.35-.06c.32-1.59-.21-2.62.84-3.08Z" transform="translate(-0.29 -1.03)"/></g></g></svg>